<svg width="140" height="139" viewBox="0 0 140 139" fill="none" xmlns="http://www.w3.org/2000/svg">
<path d="M138.778 101.273C138.348 101.77 137.824 102.178 137.236 102.472C136.648 102.766 136.008 102.941 135.352 102.988C134.696 103.034 134.038 102.951 133.414 102.742C132.791 102.534 132.214 102.205 131.718 101.773L73.7183 51.3734C72.8092 50.5854 71.6465 50.1515 70.4433 50.1515C69.2402 50.1515 68.0774 50.5854 67.1683 51.3734L9.16834 101.773C8.16688 102.641 6.86179 103.076 5.53986 102.983C4.21792 102.889 2.98726 102.274 2.11833 101.273C1.24915 100.273 0.812543 98.9689 0.904419 97.647C0.996296 96.3251 1.60915 95.0937 2.60834 94.2234L67.1383 38.1234C68.0475 37.3354 69.2102 36.9015 70.4133 36.9015C71.6165 36.9015 72.7792 37.3354 73.6883 38.1234L138.278 94.2234C139.279 95.0923 139.894 96.323 139.987 97.6449C140.081 98.9669 139.646 100.272 138.778 101.273Z" fill="#666565"/>
</svg>
