<svg width="140" height="139" viewBox="0 0 140 139" fill="none" xmlns="http://www.w3.org/2000/svg">
<g id="arrow_down">
<path id="Vector" d="M1.22166 37.7266C1.65204 37.2297 2.1762 36.8225 2.76413 36.5284C3.35206 36.2342 3.99221 36.0589 4.64797 36.0125C5.30372 35.9661 5.9622 36.0494 6.58571 36.2577C7.20923 36.466 7.78554 36.7953 8.28166 37.2266L66.2817 87.6266C67.1908 88.4146 68.3535 88.8485 69.5567 88.8485C70.7598 88.8485 71.9226 88.4146 72.8317 87.6266L130.832 37.2266C131.833 36.3586 133.138 35.9237 134.46 36.0175C135.782 36.1112 137.013 36.726 137.882 37.7266C138.751 38.7268 139.187 40.0311 139.096 41.353C139.004 42.6749 138.391 43.9063 137.392 44.7766L72.8617 100.877C71.9526 101.665 70.7898 102.098 69.5867 102.098C68.3835 102.098 67.2208 101.665 66.3117 100.877L1.72166 44.7766C0.721026 43.9077 0.106292 42.677 0.0125378 41.3551C-0.0812168 40.0331 0.353678 38.7281 1.22166 37.7266Z" fill="#666565"/>
</g>
</svg>
