<svg width="139" height="139" viewBox="0 0 139 139" fill="none" xmlns="http://www.w3.org/2000/svg">
<path d="M100.37 1.21907C100.867 1.64912 101.274 2.17287 101.568 2.76034C101.862 3.34781 102.038 3.98748 102.084 4.64273C102.131 5.29797 102.047 5.95594 101.839 6.57897C101.631 7.202 101.301 7.77786 100.87 8.2736L50.47 66.2287C49.682 67.1371 49.2481 68.299 49.2481 69.5012C49.2481 70.7034 49.682 71.8653 50.47 72.7737L100.87 130.729C101.738 131.729 102.173 133.034 102.079 134.354C101.985 135.675 101.371 136.905 100.37 137.773C99.3698 138.642 98.0655 139.078 96.7436 138.986C95.4217 138.895 94.1903 138.282 93.32 137.284L37.22 72.8036C36.432 71.8952 35.9981 70.7334 35.9981 69.5312C35.9981 68.329 36.432 67.1671 37.22 66.2587L93.32 1.71868C94.1889 0.71882 95.4196 0.104562 96.7415 0.0108801C98.0634 -0.0828019 99.3685 0.351756 100.37 1.21907Z" fill="#666565"/>
</svg>
