<svg width="139" height="139" viewBox="0 0 139 139" fill="none" xmlns="http://www.w3.org/2000/svg">
<path d="M38.63 137.781C38.133 137.351 37.7259 136.827 37.4317 136.24C37.1376 135.652 36.9623 135.013 36.9159 134.357C36.8694 133.702 36.9528 133.044 37.1611 132.421C37.3694 131.798 37.6987 131.222 38.13 130.726L88.53 72.7713C89.318 71.8629 89.7518 70.701 89.7518 69.4988C89.7518 68.2966 89.318 67.1347 88.53 66.2263L38.13 8.2712C37.262 7.27051 36.8271 5.96644 36.9209 4.64553C37.0146 3.32461 37.6294 2.09491 38.63 1.22665C39.6302 0.358138 40.9345 -0.0781303 42.2564 0.0136754C43.5783 0.105481 44.8097 0.717858 45.68 1.71628L101.78 66.1964C102.568 67.1048 103.002 68.2666 103.002 69.4688C103.002 70.671 102.568 71.8329 101.78 72.7413L45.68 137.281C44.811 138.281 43.5804 138.895 42.2585 138.989C40.9365 139.083 39.6314 138.648 38.63 137.781Z" fill="#666565"/>
</svg>
