<svg width="365" height="336" viewBox="0 0 365 336" xmlns="http://www.w3.org/2000/svg" xmlns:xlink="http://www.w3.org/1999/xlink"><svg width="182" height="112" viewBox="0 0 182 112" id="factory" x="183" xmlns="http://www.w3.org/2000/svg"><defs><style>.acls-1{fill:#00e486;fill-rule:evenodd}</style></defs><path id="afactory.png_factory.svg" data-name="factory.png,factory.svg" class="acls-1" d="M812.007 401v52H630V353l76.442 36v-36l72.8 34.285V341h18.2v54.855L808.366 401h3.641zm-138.325 8h-18.2v20h18.2v-20z" transform="translate(-630 -341)"/></svg><svg width="183" height="112" viewBox="0 0 183 112" id="home" xmlns="http://www.w3.org/2000/svg"><defs><style>.bcls-1{fill:#00e486;fill-rule:evenodd}</style></defs><path id="bhome.png_home.svg" data-name="home.png,home.svg" class="bcls-1" d="M787.5 390.251V453H655.51v-62.749H630l91.73-49.265 91.276 49.265H787.5zm-67.712 10.53h-49.3v16.756h49.3v-16.756z" transform="translate(-630 -341)"/></svg><svg width="182" height="112" viewBox="0 0 182 112" id="mail" y="112" xmlns="http://www.w3.org/2000/svg"><defs><style>.ccls-1{fill:#00e486;fill-rule:evenodd}</style></defs><path id="cmail.png_mail.svg" data-name="mail.png,mail.svg" class="ccls-1" d="M630.008 341.993h181.567v112.012H630.008V341.993zm181.978 14.055l-90.522 49.792-.822 1.367-89.924-49 1.681-2.8 87.422 47.617 90.484-49.771z" transform="translate(-630 -342)"/></svg><svg width="182" height="110.407" viewBox="0 0 182 110.407" id="network" x="182" y="112" xmlns="http://www.w3.org/2000/svg"><defs><style>.dcls-1{fill:#00e486;fill-rule:evenodd}</style></defs><path id="dnetwork.png_network.svg" data-name="network.png,network.svg" class="dcls-1" d="M763.433 447.158v-46.72l48.558.064v46.72zm-84.875-23.423v29.2L630 452.872v-46.72l48.558.064v1.592l17.658-31.832V342.53l48.559.064v46.72l-47.088-.062z" transform="translate(-630 -342.531)"/></svg><svg width="182" height="112" viewBox="0 0 182 112" id="school" y="224" xmlns="http://www.w3.org/2000/svg"><defs><style>.ecls-1{fill:#00e486;fill-rule:evenodd}</style></defs><path id="eschool.png_school.svg" data-name="school.png,school.svg" class="ecls-1" d="M716 453v-26h-22v26h-64v-86h67v-26h50v26h65v86h-96zm-64-76h-10v10h10v-10zm20 0h-10v10h10v-10zm49-26c-5.523 0-10 4.925-10 11s4.477 11 10 11 10-4.925 10-11-4.477-11-10-11z" transform="translate(-630 -341)"/></svg></svg>