<svg xmlns="http://www.w3.org/2000/svg" xmlns:xlink="http://www.w3.org/1999/xlink"><symbol fill="none" viewBox="0 0 182 112" id="factory" xmlns="http://www.w3.org/2000/svg"><g clip-path="url(#aclip0_3_22)"><path fill-rule="evenodd" clip-rule="evenodd" d="M182.007 60V112H0V60V12L76.442 48V12L149.242 46.285V0H167.442V54.855L178.366 60H182.007ZM43.682 68H25.482V88H43.682V68Z" fill="#00E486"/></g><defs><clipPath id="aclip0_3_22"><rect width="182" height="112" fill="white"/></clipPath></defs></symbol><symbol fill="none" viewBox="0 0 183 112" id="home" xmlns="http://www.w3.org/2000/svg"><g clip-path="url(#bclip0_3_27)"><path fill-rule="evenodd" clip-rule="evenodd" d="M157.5 49.251V112H25.51V49.251H0L91.73 -0.0140381L183.006 49.251H157.5ZM89.788 59.781H40.488V76.537H89.788V59.781Z" fill="#00E486"/></g><defs><clipPath id="bclip0_3_27"><rect width="183" height="112" fill="white"/></clipPath></defs></symbol><symbol fill="none" viewBox="0 0 182 112" id="mail" xmlns="http://www.w3.org/2000/svg"><g clip-path="url(#cclip0_3_28)"><path fill-rule="evenodd" clip-rule="evenodd" d="M0.00799561 -0.00695801H181.575V112.005H0.00799561V-0.00695801ZM181.986 14.048L91.464 63.84L90.642 65.207L0.718018 16.207L2.39899 13.407L89.821 61.024L180.305 11.253L181.986 14.048Z" fill="#00E486"/></g><defs><clipPath id="cclip0_3_28"><rect width="182" height="112" fill="white"/></clipPath></defs></symbol><symbol fill="none" viewBox="0 0 182 111" id="network" xmlns="http://www.w3.org/2000/svg"><g clip-path="url(#dclip0_4_31)"><path fill-rule="evenodd" clip-rule="evenodd" d="M133.433 104.627V57.907L181.991 57.971V104.691L133.433 104.627ZM48.558 81.204V110.404L0 110.341V63.621L48.558 63.685V65.277L66.216 33.445V-0.000976562L114.775 0.0630188V46.783L67.687 46.721L48.558 81.204Z" fill="#00E486"/></g><defs><clipPath id="dclip0_4_31"><rect width="182" height="110.407" fill="white"/></clipPath></defs></symbol><symbol fill="none" viewBox="0 0 182 112" id="school" xmlns="http://www.w3.org/2000/svg"><g clip-path="url(#eclip0_4_34)"><path fill-rule="evenodd" clip-rule="evenodd" d="M86 112V86H64V112H0V26H67V0H117V26H182V112H86ZM22 36H12V46H22V36ZM42 36H32V46H42V36ZM91 10C85.477 10 81 14.925 81 21C81 27.075 85.477 32 91 32C96.523 32 101 27.075 101 21C101 14.925 96.523 10 91 10Z" fill="#00E486"/></g><defs><clipPath id="eclip0_4_34"><rect width="182" height="112" fill="white"/></clipPath></defs></symbol></svg>