<svg width="337" height="285" viewBox="0 0 337 285" xmlns="http://www.w3.org/2000/svg" xmlns:xlink="http://www.w3.org/1999/xlink"><svg width="148.594" height="83.219" viewBox="0 0 148.594 83.219" id="factory" x="149.874" y="106.438" xmlns="http://www.w3.org/2000/svg"><defs><style>.acls-1{fill:#00e486;fill-rule:evenodd}</style></defs><path id="afactory.png_factory.svg" data-name="factory.png,factory.svg" class="acls-1" d="M793.6 565.58v38.636H645V529.916l62.411 26.748v-26.748l59.44 25.474V521h14.86v40.759l8.916 3.82h2.973zm-112.935 5.944H665.8v14.86h14.86v-14.86z" transform="translate(-645 -521)"/></svg><svg width="174.5" height="106.438" viewBox="0 0 174.5 106.438" id="home" xmlns="http://www.w3.org/2000/svg"><defs><style>.bcls-1{fill:#00e486;fill-rule:evenodd}</style></defs><path id="bhome.png_home.svg" data-name="home.png,home.svg" class="bcls-1" d="M782.375 389.367V449H656.513v-59.633h-24.322l87.47-46.818 87.039 46.818h-24.325zm-64.567 10.008H670.8V415.3h47.007v-15.925z" transform="translate(-632.188 -342.562)"/></svg><svg width="149.874" height="95.906" viewBox="0 0 149.874 95.906" id="mail" y="106.438" xmlns="http://www.w3.org/2000/svg"><defs><style>.ccls-1{fill:#00e486;fill-rule:evenodd}</style></defs><path id="cmail.png_mail.svg" data-name="mail.png,mail.svg" class="ccls-1" d="M914.168 353.642H1063.7v95.925H914.168v-95.925zm149.872 12.036l-74.55 42.641-.677 1.171-74.061-41.967 1.384-2.4 72 40.778 74.524-42.622z" transform="translate(-914.156 -353.656)"/></svg><svg width="161.532" height="101.874" viewBox="0 0 161.532 101.874" id="network" x="174.5" xmlns="http://www.w3.org/2000/svg"><defs><style>.dcls-1{fill:#00e486;fill-rule:evenodd}</style></defs><path id="dnetwork.png_network.svg" data-name="network.png,network.svg" class="dcls-1" d="M1030.11 595.121v-43.1h43.1v43.1h-43.1zm-75.325-21.5v26.937h-43.1v-43.1h43.1v1.469l15.672-29.385v-30.855h43.093v43.1h-41.788z" transform="translate(-911.688 -498.688)"/></svg><svg width="148" height="82" viewBox="0 0 148 82" id="school" y="202.344" xmlns="http://www.w3.org/2000/svg"><defs><style>.ecls-1{fill:#00e486;fill-rule:evenodd}</style></defs><path id="eschool.png_school.svg" data-name="school.png,school.svg" class="ecls-1" d="M731 743v-24h-22v24h-64v-56h50v-26h50v26h48v56h-62zm-64-46h-10v10h10v-10zm20 0h-10v10h10v-10zm32-26c-5.523 0-10 4.925-10 11s4.477 11 10 11 10-4.925 10-11-4.477-11-10-11z" transform="translate(-645 -661)"/></svg></svg>