<svg width="365" height="336" viewBox="0 0 365 336" xmlns="http://www.w3.org/2000/svg" xmlns:xlink="http://www.w3.org/1999/xlink"><svg width="182" height="112" viewBox="0 0 182 112" id="factory" x="183" xmlns="http://www.w3.org/2000/svg"><defs><style>.acls-1 {
        fill: #f069f2;
        fill-rule: evenodd;
      }</style></defs><path id="aexamples_factory.png_examples_factory.svg" data-name="examples/factory.png,examples/factory.svg" class="acls-1" d="M812.007,401v52H630V401h0V353l76.442,36V353l72.8,34.285V341h18.2v54.855L808.366,401h3.641Zm-138.325,8h-18.2v20h18.2V409Z" transform="translate(-630 -341)"/></svg><svg width="183" height="112" viewBox="0 0 183 112" id="home" xmlns="http://www.w3.org/2000/svg"><defs><style>.bcls-1 {
        fill: #f069f2;
        fill-rule: evenodd;
      }</style></defs><path id="bexamples_home.png_examples_home.svg" data-name="examples/home.png,examples/home.svg" class="bcls-1" d="M787.5,390.251V453H655.51V390.251H630l91.73-49.265,91.276,49.265H787.5Zm-67.712,10.53h-49.3v16.756h49.3V400.781Z" transform="translate(-630 -341)"/></svg><svg width="182" height="112" viewBox="0 0 182 112" id="mail" y="112" xmlns="http://www.w3.org/2000/svg"><defs><style>.ccls-1 {
        fill: #f069f2;
        fill-rule: evenodd;
      }</style></defs><path id="cexamples_mail.png_examples_mail.svg" data-name="examples/mail.png,examples/mail.svg" class="ccls-1" d="M630.008,341.993H811.575V454.005H630.008V341.993Zm181.978,14.055L721.464,405.84l-0.822,1.367-89.924-49,1.681-2.8,87.422,47.617,90.484-49.771Z" transform="translate(-630 -342)"/></svg><svg width="182" height="110.407" viewBox="0 0 182 110.407" id="network" x="182" y="112" xmlns="http://www.w3.org/2000/svg"><defs><style>.dcls-1 {
        fill: #f069f2;
        fill-rule: evenodd;
      }</style></defs><path id="dexamples_network.png_examples_network.svg" data-name="examples/network.png,examples/network.svg" class="dcls-1" d="M763.433,447.158v-46.72l48.558,0.064v46.72Zm-84.875-23.423v29.2L630,452.872v-46.72l48.558,0.064v1.592l17.658-31.832V342.53l48.559,0.064v46.72l-47.088-.062Z" transform="translate(-630 -342.531)"/></svg><svg width="182" height="112" viewBox="0 0 182 112" id="school" y="224" xmlns="http://www.w3.org/2000/svg"><defs><style>.ecls-1 {
        fill: #f069f2;
        fill-rule: evenodd;
      }</style></defs><path id="eexamples_school.png_examples_school.svg" data-name="examples/school.png,examples/school.svg" class="ecls-1" d="M716,453V427H694v26H630V367h67V341h50v26h65v86H716Zm-64-76H642v10h10V377Zm20,0H662v10h10V377Zm49-26c-5.523,0-10,4.925-10,11s4.477,11,10,11,10-4.925,10-11S726.523,351,721,351Z" transform="translate(-630 -341)"/></svg></svg>