<svg xmlns="http://www.w3.org/2000/svg" xmlns:xlink="http://www.w3.org/1999/xlink"><symbol fill="none" viewBox="0 0 182 112" id="factory" xmlns="http://www.w3.org/2000/svg"><path fill-rule="evenodd" clip-rule="evenodd" d="M182.007 60V112H0V60V12L76.442 48V12L149.242 46.285V0H167.442V54.855L178.366 60H182.007ZM43.682 68H25.482V88H43.682V68Z" fill="#F069F2"/></symbol><symbol fill="none" viewBox="0 0 184 112" id="home" xmlns="http://www.w3.org/2000/svg"><path fill-rule="evenodd" clip-rule="evenodd" d="M158 49.251V112H26.01V49.251H0.5L92.23 -0.0140381L183.506 49.251H158ZM90.288 59.781H40.988V76.537H90.288V59.781Z" fill="#F069F2"/></symbol><symbol fill="none" viewBox="0 0 183 112" id="mail" xmlns="http://www.w3.org/2000/svg"><path fill-rule="evenodd" clip-rule="evenodd" d="M0.507996 -0.00695801H182.075V112.005H0.507996V-0.00695801ZM182.486 14.048L91.964 63.84L91.142 65.207L1.21802 16.207L2.89899 13.407L90.321 61.024L180.805 11.253L182.486 14.048Z" fill="#F069F2"/></symbol><symbol fill="none" viewBox="0 0 183 111" id="network" xmlns="http://www.w3.org/2000/svg"><path fill-rule="evenodd" clip-rule="evenodd" d="M133.933 104.627V57.907L182.491 57.971V104.691L133.933 104.627ZM49.058 81.204V110.404L0.5 110.341V63.621L49.058 63.685V65.277L66.716 33.445V-0.000976562L115.275 0.0630188V46.783L68.187 46.721L49.058 81.204Z" fill="#F069F2"/></symbol><symbol fill="none" viewBox="0 0 183 112" id="school" xmlns="http://www.w3.org/2000/svg"><path fill-rule="evenodd" clip-rule="evenodd" d="M86.5 112V86H64.5V112H0.5V26H67.5V0H117.5V26H182.5V112H86.5ZM22.5 36H12.5V46H22.5V36ZM42.5 36H32.5V46H42.5V36ZM91.5 10C85.977 10 81.5 14.925 81.5 21C81.5 27.075 85.977 32 91.5 32C97.023 32 101.5 27.075 101.5 21C101.5 14.925 97.023 10 91.5 10Z" fill="#F069F2"/></symbol></svg>